HIERARCHY
ROOT Hips
{
	OFFSET 0.00000 0.00000 0.00000
	CHANNELS 6 Xposition Yposition Zposition Zrotation Yrotation Xrotation 
	JOINT LHipJoint
	{
		OFFSET 0 0 0
		CHANNELS 3 Zrotation Yrotation Xrotation
		JOINT LeftHip
		{
			OFFSET 1.30186 -1.90722 0.65024
			CHANNELS 3 Zrotation Yrotation Xrotation
			JOINT LeftKnee
			{
				OFFSET 2.56413 -7.04489 0.00000
				CHANNELS 3 Zrotation Yrotation Xrotation
				JOINT LeftAnkle
				{
					OFFSET 2.79321 -7.67428 0.00000
					CHANNELS 3 Zrotation Yrotation Xrotation
					JOINT LeftToe
					{
						OFFSET 0.15723 -0.43198 2.08537
						CHANNELS 3 Zrotation Yrotation Xrotation
						End Site
						{
							OFFSET 0.00000 -0.00000 1.07411
						}
					}
				}
			}
		}
	}
	JOINT RHipJoint
	{
		OFFSET 0 0 0
		CHANNELS 3 Zrotation Yrotation Xrotation
		JOINT RightHip
		{
			OFFSET -1.28627 -1.90723 0.65024
			CHANNELS 3 Zrotation Yrotation Xrotation
			JOINT RightKnee
			{
				OFFSET -2.56567 -7.04913 0.00000
				CHANNELS 3 Zrotation Yrotation Xrotation
				JOINT RightAnkle
				{
					OFFSET -2.75597 -7.57198 0.00000
					CHANNELS 3 Zrotation Yrotation Xrotation
					JOINT RightToe
					{
						OFFSET -0.17500 -0.48081 2.22901
						CHANNELS 3 Zrotation Yrotation Xrotation
						End Site
						{
							OFFSET -0.00000 -0.00000 1.14762
						}
					}
				}
			}
		}
	}
	JOINT lowerback
	{
		OFFSET 0 0 0
		CHANNELS 3 Zrotation Yrotation Xrotation
		JOINT Chest
		{
			OFFSET -0.04522 2.07467 -0.16566
			CHANNELS 3 Zrotation Yrotation Xrotation
			JOINT Chest2
			{
				OFFSET -0.01178 2.08825 -0.05393
				CHANNELS 3 Zrotation Yrotation Xrotation
				JOINT lowerneck
				{
					OFFSET 0 0 0
					CHANNELS 3 Zrotation Yrotation Xrotation
					JOINT Neck
					{
						OFFSET -0.05182 1.80489 0.16014
						CHANNELS 3 Zrotation Yrotation Xrotation
						JOINT Head
						{
							OFFSET 0.14739 1.78840 -0.33342
							CHANNELS 3 Zrotation Yrotation Xrotation
							End Site
							{
								OFFSET 0.04364 1.83899 -0.13460
							}
						}
					}
				}
				JOINT LeftCollar
				{
					OFFSET 0 0 0
					CHANNELS 3 Zrotation Yrotation Xrotation
					JOINT LeftShoulder
					{
						OFFSET 3.01264 1.29090 -0.06579
CHANNELS 3 Zrotation Xrotation Yrotation
						JOINT LeftElbow
						{
OFFSET 0 -5.556800 0.000000
CHANNELS 3 Zrotation Xrotation Yrotation
							JOINT LeftWrist
							{
OFFSET 0 -3.639790 -0.000000
CHANNELS 3 Zrotation Xrotation Yrotation
								JOINT lhand
								{
									OFFSET 0 0 0
CHANNELS 3 Zrotation Xrotation Yrotation
									JOINT LFingers
									{
OFFSET 0 -0.569420 -0.000000
CHANNELS 3 Zrotation Xrotation Yrotation
										End Site
										{
OFFSET 0 -0.459080 -0.000000
										}
									}
								}
								JOINT LThumb
								{
OFFSET 0 0.000000 0.000000
CHANNELS 3 Zrotation Xrotation Yrotation
									End Site
									{
OFFSET 0 -0.466090 0.466090
									}
								}
							}
						}
					}
				}
				JOINT RightCollar
				{
					OFFSET 0 0 0
					CHANNELS 3 Zrotation Yrotation Xrotation
					JOINT RightShoulder
					{
						OFFSET -3.15796 1.37283 -0.36748
CHANNELS 3 Zrotation Xrotation Yrotation
						JOINT RightElbow
						{
OFFSET 0 -5.343390 0.000000
CHANNELS 3 Zrotation Xrotation Yrotation
							JOINT RightWrist
							{
OFFSET 0 -3.651010 -0.000000
CHANNELS 3 Zrotation Xrotation Yrotation
								JOINT rhand
								{
									OFFSET 0 0 0
CHANNELS 3 Zrotation Xrotation Yrotation
									JOINT RFingers
									{
OFFSET 0 -0.694250 -0.000000
CHANNELS 3 Zrotation Xrotation Yrotation
										End Site
										{
OFFSET 0 -0.559720 -0.000000
										}
									}
								}
								JOINT RThumb
								{
OFFSET 0 0.000000 0.000000
CHANNELS 3 Zrotation Xrotation Yrotation
									End Site
									{
OFFSET 0 -0.568270 0.568270
									}
								}
							}
						}
					}
				}
			}
		}
	}
}
MOTION
Frames: 7
Frame Time: 0.008333333333333333
12.115417 10.521678 10.943156 4.295778 22.061052 -16.013115 0.000000 0.000000 0.000000 16.037679 -5.133898 -67.598819 18.770591 19.962620 86.403040 -1.221058 -19.340640 4.059354 3.810169 -11.902538 -35.389240 0.000000 0.000000 0.000000 -14.859193 0.361481 -70.750128 -30.060800 -17.375387 120.715247 -1.078467 6.997663 -18.543009 -0.198578 2.869222 -7.914938 -9.592389 -4.128787 46.059554 0.445826 -8.461214 15.542603 8.417929 -4.464393 -2.238692 -14.496946 -23.840093 7.958644 35.679130 -34.187865 -4.941767 9.846548 -18.018487 6.514674 0.000000 0.000000 0.000000 60.859815 -3.012099 4.798351 71.435663 -58.654937 43.995545 11.509118 -8.765215 -14.556709 0.000000 0.000000 0.000000 -7.125000 0.000000 0.000000 -14.710459 44.310912 -0.256400 0.000000 0.000000 0.000000 -8.868282 14.303934 -15.951129 -131.678706 -52.293587 -95.159765 2.911855 14.428230 -19.032852 0.000000 0.000000 0.000000 7.125000 0.000000 0.000000 19.970389 11.727357 16.559027
12.140026 10.515819 10.953637 3.440956 21.369932 -15.883498 0.000000 0.000000 0.000000 17.076300 -4.288984 -68.293919 19.387485 19.987402 88.208356 -1.366645 -20.373115 4.449695 3.982683 -12.136017 -36.216624 0.000000 0.000000 0.000000 -13.793267 1.353523 -70.845732 -29.917064 -17.455892 120.235238 -1.135918 6.451944 -19.038835 -0.405911 4.007692 -11.108777 -8.960831 -4.194231 45.739078 0.599600 -8.267126 15.409560 8.208194 -4.343774 -2.411863 -14.607906 -23.838116 7.917172 35.932892 -34.234422 -4.972951 9.906509 -18.043744 6.607175 0.000000 0.000000 0.000000 60.314278 -3.007417 4.382472 73.230862 -58.904884 45.531350 11.238844 -9.149878 -14.379405 0.000000 0.000000 0.000000 -7.125000 0.000000 0.000000 -14.897806 44.106838 -0.336488 0.000000 0.000000 0.000000 -9.215715 13.336879 -14.625343 -130.349943 -52.847897 -94.103552 2.405254 13.633023 -19.154567 0.000000 0.000000 0.000000 7.125000 0.000000 0.000000 19.649528 11.598486 16.312145
12.161998 10.498488 10.962640 2.659333 20.660333 -15.687862 0.000000 0.000000 0.000000 18.055900 -3.324922 -69.102124 20.071204 19.994732 90.208227 -1.494812 -21.204580 5.083719 4.029861 -12.199931 -36.443113 0.000000 0.000000 0.000000 -12.811066 2.144927 -71.243908 -29.810142 -17.515162 119.879040 -1.175420 5.724666 -19.400133 -0.724967 5.361516 -14.961717 -8.401751 -4.203961 45.507792 0.738434 -8.048885 15.215952 8.016202 -4.206657 -2.667772 -14.621128 -23.865261 7.876631 36.131525 -34.297252 -5.026930 9.939776 -18.079016 6.664542 0.000000 0.000000 0.000000 59.853163 -2.977215 3.856082 75.027975 -59.130344 47.072142 11.080330 -9.417717 -14.273570 0.000000 0.000000 0.000000 -7.125000 0.000000 0.000000 -15.006922 43.985605 -0.384851 0.000000 0.000000 0.000000 -9.401603 12.527409 -13.286137 -129.061306 -53.362282 -93.073082 1.616404 12.607470 -19.282646 0.000000 0.000000 0.000000 7.125000 0.000000 0.000000 19.153853 11.451191 15.909150
12.187289 10.491420 10.973999 2.343686 20.216121 -15.546968 0.000000 0.000000 0.000000 18.383942 -2.657899 -69.595969 20.803572 19.980597 92.350693 -1.600044 -21.857576 5.581974 3.967293 -12.116398 -36.145591 0.000000 0.000000 0.000000 -12.564071 2.546538 -71.487637 -29.740579 -17.553133 119.648117 -1.178191 5.740996 -19.443016 -0.929679 6.124594 -17.151704 -8.160571 -4.201402 45.501704 0.758208 -7.969550 15.001087 7.910053 -4.137861 -2.950937 -14.582763 -23.875639 7.869010 36.238314 -34.309751 -5.108476 9.964084 -18.093939 6.662805 0.000000 0.000000 0.000000 59.410619 -2.899471 3.213180 76.824555 -59.329829 48.615693 11.045521 -9.631000 -14.235078 0.000000 0.000000 0.000000 -7.125000 0.000000 0.000000 -15.026295 43.944106 -0.401129 0.000000 0.000000 0.000000 -9.568107 11.870583 -11.880404 -127.788625 -53.845549 -92.048895 0.573988 11.349697 -19.435581 0.000000 0.000000 0.000000 7.125000 0.000000 0.000000 18.499466 11.268265 15.372742
12.228743 10.531555 10.994028 2.922025 20.412213 -15.681344 0.000000 0.000000 0.000000 17.346425 -2.902198 -69.140518 21.561778 19.941239 94.570505 -1.683185 -22.439098 5.265324 3.860320 -11.972240 -35.633703 0.000000 0.000000 0.000000 -13.789062 2.427920 -70.758076 -29.682202 -17.584728 119.454664 -1.133088 7.656423 -19.027078 -0.685302 5.291863 -14.743020 -8.445549 -4.309074 45.883020 0.517867 -8.270908 14.841870 7.927054 -4.258264 -3.169619 -14.586567 -23.801736 7.930570 36.226204 -34.190823 -5.188512 10.008022 -18.048293 6.595578 0.000000 0.000000 0.000000 58.886310 -2.701206 2.455518 78.677957 -59.509851 50.210977 11.176870 -9.899986 -14.255028 0.000000 0.000000 0.000000 -7.125000 0.000000 0.000000 -14.915751 43.978108 -0.385138 0.000000 0.000000 0.000000 -9.925823 11.293564 -10.346991 -126.433061 -54.336477 -90.951837 -0.432244 9.961839 -19.606133 0.000000 0.000000 0.000000 7.125000 0.000000 0.000000 17.865156 11.064255 14.864968
12.269351 10.552680 11.001511 3.243466 20.298919 -15.632629 0.000000 0.000000 0.000000 16.715727 -2.692194 -69.020003 22.372549 19.859782 96.953245 -1.785412 -23.162306 4.750497 3.633056 -11.653456 -34.519360 0.000000 0.000000 0.000000 -14.691585 2.569202 -70.826299 -29.709329 -17.570069 119.544507 -0.990398 8.905748 -17.919178 -0.621169 5.041886 -14.028337 -8.645176 -4.307383 46.207923 0.399434 -8.401256 14.667798 7.972376 -4.299320 -3.412852 -14.446684 -23.775395 7.726613 36.132899 -34.131617 -5.154029 9.958144 -17.996567 6.575375 0.000000 0.000000 0.000000 58.424725 -2.536649 1.832230 80.551291 -59.655857 51.826887 11.281590 -10.185057 -14.305995 0.000000 0.000000 0.000000 -7.125000 0.000000 0.000000 -14.838069 44.039584 -0.360064 0.000000 0.000000 0.000000 -10.280230 10.390381 -8.926942 -124.855154 -54.865886 -89.664376 -0.831095 8.830570 -19.870347 0.000000 0.000000 0.000000 7.125000 0.000000 0.000000 17.602802 10.793904 14.725378
12.308805 10.557098 11.004846 3.240209 19.878105 -15.328914 0.000000 0.000000 0.000000 16.578131 -2.004070 -69.366309 23.204575 19.744715 99.410004 -1.891463 -23.866927 4.428568 3.287759 -11.137067 -32.754906 0.000000 0.000000 0.000000 -15.061286 2.863901 -71.477434 -29.756906 -17.544255 119.702263 -0.879616 9.131226 -16.957037 -0.888493 5.936443 -16.620899 -8.562373 -4.295081 46.234324 0.342218 -8.378795 14.496437 7.878902 -4.264243 -3.634843 -14.152426 -23.901994 7.330593 36.089551 -34.276772 -5.120299 9.820925 -18.027984 6.620215 0.000000 0.000000 0.000000 58.102345 -2.545876 1.280476 82.165164 -59.763135 53.220408 11.169462 -10.414093 -14.376937 0.000000 0.000000 0.000000 -7.125000 0.000000 0.000000 -14.958893 44.096660 -0.341409 0.000000 0.000000 0.000000 -10.515108 9.405703 -7.614930 -123.273026 -55.366095 -88.366091 -0.757650 8.041521 -19.582694 0.000000 0.000000 0.000000 7.125000 0.000000 0.000000 17.664834 11.071453 14.676329
